<?xml version="1.0" encoding="UTF-8"?>
<svg version="1.1" xmlns="http://www.w3.org/2000/svg" width="324" height="322">
  <path d="M0 0 C0.64839844 0.11827148 1.29679688 0.23654297 1.96484375 0.35839844 C25.94489656 4.88054851 50.66330426 15.59790977 69 32 C69 32.66 69 33.32 69 34 C69.69867188 34.21140625 70.39734375 34.4228125 71.1171875 34.640625 C74.79724792 36.37593804 77.32315338 38.87518643 80.125 41.75 C80.69049561 42.32492188 81.25599121 42.89984375 81.83862305 43.4921875 C108.669061 71.26569224 123.77694134 107.61013469 126 146 C126.03996094 146.6894873 126.07992188 147.37897461 126.12109375 148.08935547 C128.11927865 189.66159224 112.74334358 228.43001307 85.4375 259.25 C83.96538122 260.83988829 82.48642993 262.42348341 81 264 C80.32839844 264.73605469 79.65679687 265.47210938 78.96484375 266.23046875 C65.45637171 280.49642521 47.86542027 290.83313689 29.83081055 298.23510742 C28.07876063 298.96709467 26.34909162 299.75197445 24.62109375 300.5390625 C20.29238468 302.28548881 15.96366917 303.45111687 11.4375 304.5625 C10.2299707 304.87477539 10.2299707 304.87477539 8.99804688 305.19335938 C-3.60470296 308.33174907 -16.10913394 309.38613389 -29.0625 309.3125 C-29.7829953 309.30968018 -30.5034906 309.30686035 -31.24581909 309.30395508 C-69.77789847 309.07845022 -105.45551705 296.49001916 -133.89453125 269.953125 C-135.61257461 268.35939276 -137.34865335 266.88541074 -139.1875 265.4375 C-142.8779589 262.23910229 -145.92041636 258.78496313 -149 255 C-149.42555176 254.48630859 -149.85110352 253.97261719 -150.28955078 253.44335938 C-163.55573008 237.27072701 -172.83894007 218.70924686 -179.37304688 198.89306641 C-179.89419714 197.31946861 -180.45053049 195.75757552 -181.015625 194.19921875 C-193.06393439 159.05831635 -184.68830322 114.76218724 -169.19140625 82.33203125 C-166.51616717 76.93857269 -163.49264091 71.90388859 -160 67 C-159.39800781 66.11570312 -158.79601562 65.23140625 -158.17578125 64.3203125 C-153.04659227 56.97506418 -147.17387597 50.45831526 -141 44 C-140.1853125 43.13246094 -139.370625 42.26492187 -138.53125 41.37109375 C-103.39178798 4.91960636 -49.2240593 -9.22951112 0 0 Z " fill="#C44E9D" transform="translate(191,8)"/>
  <path d="M0 0 C3.52897369 0.49032394 6.67477386 1.59723571 9.96850586 2.92456055 C10.66355225 3.19743896 11.35859863 3.47031738 12.07470703 3.75146484 C30.50740752 11.15820234 46.90283942 24.01216119 55.09741211 42.5925293 C55.62141602 43.93250977 55.62141602 43.93250977 56.15600586 45.29956055 C56.6187793 46.40944336 57.08155273 47.51932617 57.55834961 48.6628418 C63.4125129 63.9216285 63.15213451 81.80561395 58.15600586 97.29956055 C58.88303711 97.28795898 59.61006836 97.27635742 60.35913086 97.2644043 C63.62612165 97.23508515 66.88916242 97.25811271 70.15600586 97.29956055 C71.05706055 97.30342773 71.95811523 97.30729492 72.88647461 97.3112793 C89.29118857 97.99776805 105.00565276 104.37407933 119.15600586 112.29956055 C120.30198242 112.92862305 121.44795898 113.55768555 122.62866211 114.20581055 C138.68815723 123.45883996 154.59833476 137.27116802 164.15600586 153.29956055 C164.15600586 153.95956055 164.15600586 154.61956055 164.15600586 155.29956055 C164.81600586 155.29956055 165.47600586 155.29956055 166.15600586 155.29956055 C166.56592773 156.13100586 166.97584961 156.96245117 167.39819336 157.8190918 C167.93702148 158.90577148 168.47584961 159.99245117 169.03100586 161.11206055 C169.56467773 162.19100586 170.09834961 163.26995117 170.64819336 164.3815918 C172.12821725 167.37794319 172.12821725 167.37794319 174.15600586 170.29956055 C174.15600586 171.61956055 174.15600586 172.93956055 174.15600586 174.29956055 C175.15567383 173.73688477 175.15567383 173.73688477 176.17553711 173.1628418 C186.211232 167.59057484 195.9198124 162.85687343 207.15600586 160.29956055 C208.0519043 160.09331055 208.94780273 159.88706055 209.87084961 159.67456055 C212.62716226 159.10510714 215.36708805 158.6765453 218.15600586 158.29956055 C219.69708008 158.04819336 219.69708008 158.04819336 221.26928711 157.79174805 C224.55137087 157.47294041 226.97516236 157.40837595 230.15600586 158.29956055 C232.51560898 160.74537994 233.91411739 163.19006258 235.48803711 166.19799805 C237.70880196 170.32747648 240.61544775 173.65632754 243.65209961 177.20581055 C245.15600586 179.29956055 245.15600586 179.29956055 245.15600586 182.29956055 C235.62692722 196.43312938 222.16722394 207.8591098 208.15600586 217.29956055 C207.07448242 218.03045898 205.99295898 218.76135742 204.87866211 219.5144043 C197.26654246 224.41664699 189.33686757 228.10754459 180.98681641 231.53466797 C179.23476649 232.26665522 177.50509748 233.051535 175.77709961 233.83862305 C171.44839054 235.58504936 167.11967503 236.75067741 162.59350586 237.86206055 C161.38597656 238.17433594 161.38597656 238.17433594 160.15405273 238.49291992 C147.5513029 241.63130962 135.04687192 242.68569444 122.09350586 242.61206055 C121.01276291 242.60783081 121.01276291 242.60783081 119.91018677 242.60351562 C81.37810739 242.37801076 45.70048881 229.78957971 17.26147461 203.25268555 C15.54343125 201.65895331 13.8073525 200.18497129 11.96850586 198.73706055 C8.27804696 195.53866284 5.2355895 192.08452368 2.15600586 188.29956055 C1.7304541 187.78586914 1.30490234 187.27217773 0.86645508 186.74291992 C-12.39972422 170.57028755 -21.68293421 152.0088074 -28.21704102 132.19262695 C-28.73819128 130.61902915 -29.29452463 129.05713607 -29.85961914 127.4987793 C-41.98315473 92.13846715 -33.41863302 47.91635747 -17.84399414 15.29956055 C-17.51399414 16.28956055 -17.18399414 17.27956055 -16.84399414 18.29956055 C-16.55266602 17.75428711 -16.26133789 17.20901367 -15.96118164 16.6472168 C-14.61981358 14.17960575 -13.23310714 11.74058761 -11.84399414 9.29956055 C-11.38637695 8.44104492 -10.92875977 7.5825293 -10.45727539 6.69799805 C-9.98676758 5.88588867 -9.51625977 5.0737793 -9.03149414 4.23706055 C-8.61254883 3.48295898 -8.19360352 2.72885742 -7.76196289 1.9519043 C-5.25646933 -0.20659626 -3.23156482 -0.16755166 0 0 Z " fill="#62378D" transform="translate(39.843994140625,74.700439453125)"/>
  <path d="M0 0 C2 1 2 1 2.82202148 2.95507812 C3.08571533 3.80521484 3.34940918 4.65535156 3.62109375 5.53125 C3.9154834 6.47895264 4.20987305 7.42665527 4.51318359 8.40307617 C4.97072021 9.93605347 4.97072021 9.93605347 5.4375 11.5 C5.75025879 12.54067627 6.06301758 13.58135254 6.38525391 14.65356445 C10.06702367 27.22119963 12.45646416 39.8892566 13 53 C13.07927734 54.81757813 13.07927734 54.81757813 13.16015625 56.671875 C14.09859039 89.30542298 5.41520666 127.98790964 -17 153 C-17.99 153.33 -18.98 153.66 -20 154 C-20.4125 153.27683594 -20.825 152.55367187 -21.25 151.80859375 C-22.98947577 149.01689045 -24.89478977 146.58635999 -27 144.0625 C-29.90251495 140.49304687 -32.21776281 137.23281332 -34 133 C-51.7506091 131.74701583 -68.91801914 137.648181 -84.46875 145.73046875 C-87 147 -87 147 -90 148 C-90.24234375 147.34773437 -90.4846875 146.69546875 -90.734375 146.0234375 C-93.00904587 140.04549569 -93.00904587 140.04549569 -96.25 134.5625 C-98 132 -98 132 -98 129 C-98.66 129 -99.32 129 -100 129 C-101.48169359 126.98563144 -102.8713326 124.95834399 -104.25 122.875 C-109.54330237 115.13524699 -115.86821268 108.73152871 -122.64648438 102.29003906 C-123.78005581 101.20962935 -124.89269035 100.10730965 -126 99 C-124.89789095 97.24870343 -123.79322568 95.49901536 -122.6875 93.75 C-121.76517578 92.28820312 -121.76517578 92.28820312 -120.82421875 90.796875 C-119 88 -119 88 -117.50683594 86.11376953 C-115.93858469 83.91384741 -115.02268807 81.90394249 -114.06640625 79.3828125 C-113.55811279 78.06458496 -113.55811279 78.06458496 -113.03955078 76.71972656 C-112.69649902 75.8222168 -112.35344727 74.92470703 -112 74 C-111.32491627 72.30857432 -110.64657677 70.61844413 -109.96484375 68.9296875 C-109.63033203 68.09566406 -109.29582031 67.26164062 -108.95117188 66.40234375 C-108.27215003 64.70936828 -107.5924561 63.01666223 -106.91210938 61.32421875 C-104.87427498 56.23948689 -102.90391634 51.13642228 -101 46 C-99.741875 46.165 -98.48375 46.33 -97.1875 46.5 C-81.17269586 48.03381223 -63.06856625 48.30140043 -48 42 C-47.01 42 -46.02 42 -45 42 C-43.3620126 43.94454651 -41.89874134 45.86669433 -40.4375 47.9375 C-36.37845324 53.49114522 -32.14556361 57.89006341 -26.8359375 62.29296875 C-26.23007812 62.85628906 -25.62421875 63.41960937 -25 64 C-25 64.66 -25 65.32 -25 66 C-24.2678125 66.26425781 -23.535625 66.52851563 -22.78125 66.80078125 C-19.2088805 68.34111473 -16.37788688 70.52753927 -13.28125 72.85546875 C-11.04641479 74.21399601 -11.04641479 74.21399601 -8.46484375 73.85546875 C-5.84043374 72.94461963 -4.20078562 71.88285444 -2.0625 70.125 C5.74098558 64 5.74098558 64 11 64 C10.67 57.07 10.34 50.14 10 43 C2.12687641 46.17589736 2.12687641 46.17589736 -5.5 49.875 C-8.41753164 51.18788924 -9.07380644 51.07055862 -12 50 C-17.79651326 45.87670706 -22.4784406 40.44000116 -27 35 C-25.49583188 31.10126539 -23.27848432 29.51495237 -19.875 27.1875 C-14.9587902 23.7153466 -10.35565532 20.15476555 -6 16 C-5.31292969 15.36191406 -4.62585938 14.72382812 -3.91796875 14.06640625 C-0.2287153 10.4722591 -0.2287153 10.4722591 1.2109375 5.71484375 C0.95974165 3.25993076 0.95974165 3.25993076 0 0 Z " fill="#AC479A" transform="translate(304,101)"/>
  <path d="M0 0 C1.02738281 0.00902344 2.05476563 0.01804688 3.11328125 0.02734375 C3.96277344 0.03894531 4.81226562 0.05054688 5.6875 0.0625 C7.08077845 0.0625 8.47409024 0.04981306 9.8671875 0.02734375 C12.80877077 -0.0024984 15.74606219 0.0216467 18.6875 0.0625 C20.00234375 0.06830078 20.00234375 0.06830078 21.34375 0.07421875 C36.74032038 0.71574252 57.87540768 6.2236719 69.6171875 16.80078125 C70.14699219 17.42533203 70.14699219 17.42533203 70.6875 18.0625 C65.97599718 24.98251976 60.98658476 31.58336696 55.6875 38.0625 C54.92179687 39.03316406 54.92179687 39.03316406 54.140625 40.0234375 C53.03567761 41.40787158 51.86860555 42.74244086 50.6875 44.0625 C50.0275 44.0625 49.3675 44.0625 48.6875 44.0625 C48.35685547 44.89394531 48.35685547 44.89394531 48.01953125 45.7421875 C34.33875412 69.57321863 -4.76034254 86.54074992 -30.0078125 93.38671875 C-33.76048738 94.35248067 -37.52766889 95.23231225 -41.3125 96.0625 C-48.52912514 88.5445544 -54.63204432 80.78644934 -60.3125 72.0625 C-60.84488281 71.26585937 -61.37726562 70.46921875 -61.92578125 69.6484375 C-68.18727048 59.82583176 -77.36361167 44.19871156 -77.296875 32.26953125 C-72.1357511 20.69796378 -53.39464034 13.18856418 -42.125 8.8125 C-28.80013686 3.81447545 -14.31910975 -0.16375094 0 0 Z " fill="#4C3387" transform="translate(91.3125,171.9375)"/>
  <path d="M0 0 C1.33775661 2.67551322 0.48184598 4.09215907 -0.33618164 6.84643555 C-7.01751025 30.08053198 -4.40798938 57.37593835 6.98852539 78.71826172 C7.97488954 80.48868259 8.98671612 82.24484757 10 84 C10.5053125 84.92941406 11.010625 85.85882813 11.53125 86.81640625 C22.67452995 106.59572815 40.01414178 119.26272981 60 129 C58.67140168 135.85167197 56.60566929 141.99857268 53.9375 148.4375 C53.57333984 149.33404297 53.20917969 150.23058594 52.83398438 151.15429688 C50.23335459 157.53329082 50.23335459 157.53329082 49 160 C45.57728608 158.68903599 42.28572255 157.19301136 38.9909668 155.58911133 C25.14549015 148.89915382 10.99781738 145.07515385 -4 142 C-4.02578125 140.90945312 -4.0515625 139.81890625 -4.078125 138.6953125 C-4.98004183 111.6680732 -13.2090506 90.39585477 -31 70 C-41.44270043 60.26017364 -53.20900552 53.3305152 -66.4921875 48.32421875 C-70.04820488 46.98180239 -73.51667504 45.51894349 -77 44 C-62.72031947 26.93404034 -42.56774073 10.80924386 -21 4 C-20.22785156 4.16757812 -19.45570312 4.33515625 -18.66015625 4.5078125 C-14.64852948 5.25005181 -11.48258023 3.86144167 -7.6875 2.5625 C-6.94693359 2.31951172 -6.20636719 2.07652344 -5.44335938 1.82617188 C-3.62539885 1.22800422 -1.81219245 0.61542141 0 0 Z " fill="#783B8F" transform="translate(124,12)"/>
  <path d="M0 0 C3.17102181 0.58193336 4.84265276 1.45305679 7.13671875 3.703125 C7.710271 4.26539795 8.28382324 4.8276709 8.87475586 5.40698242 C9.47296143 6.01517822 10.07116699 6.62337402 10.6875 7.25 C11.30310791 7.87173096 11.91871582 8.49346191 12.55297852 9.1340332 C18.06046616 14.82858118 23.31921181 20.94081132 27 28 C25.71164582 31.86506255 23.36221735 33.15787908 20.1875 35.4375 C-6.00598538 55.0100559 -18.77976234 82.48181253 -25 114 C-25 114.33 -25 114.66 -25 115 C-30.61 114.67 -36.22 114.34 -42 114 C-41.67 113.34 -41.34 112.68 -41 112 C-42.12535156 111.76925781 -43.25070313 111.53851563 -44.41015625 111.30078125 C-67.40021733 106.47138129 -93.36327908 98.59179193 -110 81 C-108.84886719 80.59910156 -107.69773437 80.19820313 -106.51171875 79.78515625 C-83.07525813 71.47982166 -61.50932622 60.52897518 -42 45 C-41.1028125 44.30648437 -40.205625 43.61296875 -39.28125 42.8984375 C-23.78726845 30.65463024 -11.67034572 15.80876618 0 0 Z " fill="#473286" transform="translate(178,202)"/>
  <path d="M0 0 C2.31 0.33 4.62 0.66 7 1 C7.33 1.99 7.66 2.98 8 4 C8.71929687 4.27328125 9.43859375 4.5465625 10.1796875 4.828125 C13.91988572 6.38222398 16.34534018 8.89795102 19.125 11.75 C19.69049561 12.32492188 20.25599121 12.89984375 20.83862305 13.4921875 C34.59843951 27.73564966 51.40109379 48.25936124 54.390625 68.37890625 C53.57434147 73.8561687 49.15568561 77.65074989 45 81 C44.34 81 43.68 81 43 81 C42.505 82.485 42.505 82.485 42 84 C39.90769359 85.77817225 37.82675629 87.43253603 35.625 89.0625 C35.03460938 89.50916016 34.44421875 89.95582031 33.8359375 90.41601562 C31.2666375 92.3516707 28.67703233 94.21531178 26 96 C27.415908 100.45571047 29.60452666 102.95241134 32.9375 106.1875 C34.25041016 107.47720703 34.25041016 107.47720703 35.58984375 108.79296875 C37.98999276 111.10370529 37.98999276 111.10370529 41 113 C45.65938164 112.56461516 49.2509668 110.43718026 53.3046875 108.25390625 C56 107 56 107 63 105 C63 112.26 63 119.52 63 127 C58.545 128.98 58.545 128.98 54 131 C51.5614581 132.78612499 49.38653136 134.68987461 47.140625 136.70703125 C45 138 45 138 42.640625 137.93359375 C39.29558059 136.75095231 36.51360536 135.12294165 33.5 133.25 C32.3965625 132.57453125 31.293125 131.8990625 30.15625 131.203125 C27.05055051 129.03528526 24.60123701 126.74113548 22 124 C21.37738281 123.42378906 20.75476563 122.84757812 20.11328125 122.25390625 C1.24002381 104.5269638 -10.36987719 78.08701921 -11.21875 52.37890625 C-11.59688607 34.28137117 -10.02431497 15.67756237 0 0 Z " fill="#E45CA1" transform="translate(252,38)"/>
  <path d="M0 0 C0.33 0 0.66 0 1 0 C0.99476318 1.12494873 0.98952637 2.24989746 0.98413086 3.40893555 C0.96599566 7.59284669 0.95453686 11.77675437 0.94506836 15.96069336 C0.94004762 17.76961858 0.93322971 19.57853976 0.92456055 21.38745117 C0.91239598 23.99138386 0.90674902 26.59526277 0.90234375 29.19921875 C0.89718246 30.00461594 0.89202118 30.81001312 0.88670349 31.63981628 C0.88631363 35.56472601 1.02915245 39.16699982 2 43 C2.825 42.195625 3.65 41.39125 4.5 40.5625 C28.55957192 20.07088063 62.29913721 12.37345178 93 13 C93.08786771 17.88293431 92.79535278 22.53814689 92.125 27.375 C91.96257812 28.59960938 91.80015625 29.82421875 91.6328125 31.0859375 C91.42398438 32.04757813 91.21515625 33.00921875 91 34 C90.01 34.495 90.01 34.495 89 35 C89 34.34 89 33.68 89 33 C61.5947101 35.0984622 36.37227461 41.54962766 14 58 C12.97205322 58.70745361 12.97205322 58.70745361 11.92333984 59.42919922 C10.02211024 60.84795008 8.46246547 62.13182578 7 64 C6.72823812 69.71379355 9.36665368 75.18942743 11.5 80.4375 C11.85529785 81.31349854 12.2105957 82.18949707 12.57666016 83.09204102 C19.66817138 100.1398359 29.58174362 114.38926204 42 128 C71.6529768 122.07824308 99.55804365 107.95581128 121.58203125 87.265625 C123.71218093 85.26968507 125.88581672 83.37128501 128.125 81.5 C130.99724889 79.32340861 130.99724889 79.32340861 132 77 C132.66 77 133.32 77 134 77 C134.38478516 76.13181641 134.38478516 76.13181641 134.77734375 75.24609375 C136.1147796 72.7891429 137.63738445 71.08873273 139.5625 69.0625 C144.66542003 63.4633327 148.80313067 57.28558901 153 51 C158.1239751 51.46047195 161.3275701 54.0789325 165.3125 57.0625 C165.95767578 57.53494141 166.60285156 58.00738281 167.26757812 58.49414062 C168.85070051 59.65509704 170.42613569 60.82652336 172 62 C171.175 62.928125 170.35 63.85625 169.5 64.8125 C166.96089645 67.75715481 164.71515376 70.8061684 162.5 74 C157.46372133 81.02173469 151.53741127 87.17150792 145.54931641 93.38330078 C144.32130906 94.66471658 143.11553573 95.96743466 141.91796875 97.27734375 C130.4191399 109.55487433 115.49629863 118.71457419 101 127 C100.29375488 127.40734375 99.58750977 127.8146875 98.85986328 128.234375 C88.5976154 134.097157 78.11909966 138.48890178 66.9284668 142.27319336 C64.87052194 143.0487981 62.94997526 143.9857739 61 145 C83.37405793 161.45952435 107.53079383 171.04609911 135 175 C135 175.33 135 175.66 135 176 C106.16325558 177.77760753 75.53800255 161.83927293 54.12890625 143.546875 C52.44021214 142.03131595 50.76445277 140.50114924 49.10546875 138.953125 C47.38742539 137.35939276 45.65134665 135.88541074 43.8125 134.4375 C40.1220411 131.23910229 37.07958364 127.78496313 34 124 C33.57444824 123.48630859 33.14889648 122.97261719 32.71044922 122.44335938 C19.44426992 106.27072701 10.16105993 87.70924686 3.62695312 67.89306641 C3.10580286 66.31946861 2.54946951 64.75757552 1.984375 63.19921875 C-2.49681572 50.12907914 -2.19722739 36.0202697 -2.25 22.375 C-2.25526703 21.66873474 -2.26053406 20.96246948 -2.26596069 20.23480225 C-2.27777275 18.1849786 -2.27430938 16.13576689 -2.265625 14.0859375 C-2.26336914 12.8901709 -2.26111328 11.6944043 -2.25878906 10.46240234 C-1.97534457 6.67012899 -1.16061249 3.60804111 0 0 Z " fill="#603794" transform="translate(8,139)"/>
  <path d="M0 0 C1.63795733 1.94451081 3.10101824 3.86692473 4.5625 5.9375 C9.11203222 12.14690461 14.04020905 17.09268277 20 22 C18.72292443 24.56745401 17.42734157 27.12499583 16.125 29.6796875 C15.41655698 31.07806944 14.70822685 32.47650857 14 33.875 C13.64421875 34.56980469 13.2884375 35.26460937 12.921875 35.98046875 C8.88892198 43.97113313 7.54383376 50.97183582 6.875 59.875 C6.74544922 61.47988281 6.74544922 61.47988281 6.61328125 63.1171875 C6.40217102 65.74433699 6.19795597 68.37183211 6 71 C5.22140625 71.01417969 4.4428125 71.02835937 3.640625 71.04296875 C-7.98218866 71.53841127 -20.02478977 73.74190174 -30.83984375 78.16015625 C-33 79 -33 79 -37 79 C-38.60546875 76.98046875 -38.60546875 76.98046875 -40.1875 74.1875 C-47.60840752 61.90299559 -58.09363937 49.30274059 -70 41 C-69.40187591 37.52357198 -68.4990088 34.52811341 -67.07421875 31.3046875 C-66.69128662 30.4283667 -66.30835449 29.5520459 -65.91381836 28.64916992 C-65.5091333 27.73369385 -65.10444824 26.81821777 -64.6875 25.875 C-61.54001474 18.6568583 -58.50211582 11.47135282 -56 4 C-54.1128125 4.2475 -54.1128125 4.2475 -52.1875 4.5 C-33.88258121 6.25314715 -17.30465398 0 0 0 Z " fill="#75398F" transform="translate(259,143)"/>
  <path d="M0 0 C0 0.33 0 0.66 0 1 C-8.33639002 0.36804785 -16.66950287 -0.29453448 -25 -1 C-24.50371094 -0.08863281 -24.00742188 0.82273437 -23.49609375 1.76171875 C-14.41722322 18.88470251 -9.07276679 36.90175989 -6 56 C-5.73521851 57.5773291 -5.73521851 57.5773291 -5.46508789 59.18652344 C-4.92732032 63.59593524 -4.83796238 67.89907299 -4.83203125 72.3359375 C-4.82703865 73.65411972 -4.82703865 73.65411972 -4.82194519 74.99893188 C-4.81690537 76.84954305 -4.81453595 78.70016322 -4.81469727 80.55078125 C-4.81251204 83.35952947 -4.7943283 86.16788365 -4.77539062 88.9765625 C-4.7724557 90.78385284 -4.77047157 92.59114502 -4.76953125 94.3984375 C-4.76234573 95.2268515 -4.75516022 96.0552655 -4.74775696 96.90878296 C-4.76934228 102.50450432 -5.57611505 107.59094742 -7 113 C-23.67928739 108.12489671 -37.72846539 93.24299202 -46.1171875 78.40234375 C-56.23739508 58.79172691 -60.41885381 34.82431367 -53.6875 13.3125 C-52.08405923 8.40992827 -50.03428744 3.74667069 -48 -1 C-56.415 -0.505 -56.415 -0.505 -65 0 C-65 -0.33 -65 -0.66 -65 -1 C-43.70471858 -4.7035272 -21.16139954 -4.39049598 0 0 Z " fill="#893E93" transform="translate(196,9)"/>
  <path d="M0 0 C5.79797452 0.5680448 10.98792855 1.69549823 16.5 3.5625 C17.27609619 3.82426025 18.05219238 4.08602051 18.85180664 4.35571289 C33.8339418 9.59237951 47.23858285 17.64162742 60 27 C59.3915625 27.23332031 58.783125 27.46664062 58.15625 27.70703125 C51.25283563 31.84657864 49.70412531 44.07427136 47.796875 51.421875 C43.40136135 71.15859314 45.211617 92.08057058 51.9765625 110.98046875 C53 114 53 114 53 116 C43.7998642 118.54021449 35.33616151 119.41791029 25.8125 119.25 C24.60013672 119.24484375 23.38777344 119.2396875 22.13867188 119.234375 C13.3108459 119.15542295 13.3108459 119.15542295 11 118 C11.2165625 116.70191406 11.433125 115.40382813 11.65625 114.06640625 C17.23406409 78.58356398 13.94730731 42.8524683 1.19921875 9.23046875 C-0.62930064 4.30478296 -0.62930064 4.30478296 -1 2 C-0.67 1.34 -0.34 0.68 0 0 Z " fill="#914195" transform="translate(196,10)"/>
  <path d="M0 0 C16.0791311 3.82078363 30.94083579 10.308204 42.88671875 21.95703125 C44.9854171 24.06202097 44.9854171 24.06202097 47.46875 25.90234375 C60.38421401 36.60543661 67.97516527 54.13367783 72 70 C72.22429687 70.79019531 72.44859375 71.58039063 72.6796875 72.39453125 C74.75698813 80.74641804 74.1674655 89.45925974 74 98 C75.27875 98.061875 76.5575 98.12375 77.875 98.1875 C94.55749967 99.9262394 112.29132705 106.32202177 126 116 C124.39369175 120.24292532 122.4231838 124.27025107 120.375 128.3125 C120.05015625 128.95767578 119.7253125 129.60285156 119.390625 130.26757812 C118.59558044 131.84597541 117.79804366 133.42311694 117 135 C116.50371094 134.68546875 116.00742188 134.3709375 115.49609375 134.046875 C113.33740469 132.68694185 111.16956008 131.34251147 109 130 C107.3603125 128.9790625 107.3603125 128.9790625 105.6875 127.9375 C101.02431579 125.32821265 96.06929464 123.64512958 91 122 C89.94425781 121.64679688 88.88851562 121.29359375 87.80078125 120.9296875 C76.08409592 117.38712867 64.1625028 116.74344035 52 116 C52.15380127 115.2380835 52.30760254 114.47616699 52.46606445 113.69116211 C53.90882756 106.25040992 54.24894139 98.93908541 54.3125 91.375 C54.32990234 90.42230225 54.34730469 89.46960449 54.36523438 88.48803711 C54.35836232 78.49692347 51.82631393 69.70947041 47.25 60.875 C46.72829224 59.85043701 46.72829224 59.85043701 46.19604492 58.80517578 C43.35510938 53.37365287 40.03190836 48.62083879 36 44 C35.23429687 43.02417969 34.46859375 42.04835937 33.6796875 41.04296875 C24.90248883 30.51495079 9.16655618 23.01382808 -4 20 C-6.68521257 19.87117329 -9.30877617 19.9218677 -12 20 C-13.43930464 22.54065934 -14.87648839 25.08248022 -16.3125 27.625 C-16.91868164 28.69427734 -16.91868164 28.69427734 -17.53710938 29.78515625 C-19.80579511 33.80607893 -21.9763644 37.84794508 -24 42 C-25.73399377 36.79801868 -23.34586674 32.764716 -21 28 C-15.00026307 18.03248366 -8.22042333 8.27009357 0 0 Z " fill="#A44899" transform="translate(46,56)"/>
  <path d="M0 0 C12.36767461 -0.32032097 24.52877527 -0.23715885 36.8125 1.375 C37.78968994 1.50108643 38.76687988 1.62717285 39.77368164 1.75708008 C46.59366717 2.72911145 46.59366717 2.72911145 50 5 C48.68 5 47.36 5 46 5 C46.30292969 5.680625 46.60585937 6.36125 46.91796875 7.0625 C64.09695774 46.8120376 68.74409786 96.53475561 55 138 C54.67 138.33 54.34 138.66 54 139 C47.41800481 138.95444986 41.85416238 137.99212744 36 135 C36.5138437 129.59673323 37.28023797 124.43154564 38.4886322 119.14390564 C40.84655974 108.69764875 41.59713096 98.70600453 41.46655273 88.01782227 C41.43745784 85.4337553 41.44604525 82.85174168 41.45898438 80.26757812 C41.44078589 64.96328582 39.64222193 49.93246148 35.1875 35.25 C34.93178223 34.38221924 34.67606445 33.51443848 34.41259766 32.62036133 C31.18630851 21.93340173 26.99866547 11.99733094 22 2 C14.74 1.67 7.48 1.34 0 1 C0 0.67 0 0.34 0 0 Z " fill="#E15BA1" transform="translate(149,7)"/>
  <path d="M0 0 C1.05058594 0.00902344 2.10117188 0.01804688 3.18359375 0.02734375 C3.96863281 0.03894531 4.75367187 0.05054688 5.5625 0.0625 C2.29144784 16.38016251 -10.16389874 31.02996709 -23.56640625 40.25 C-38.41155729 49.62163277 -53.19623967 52.64043732 -70.4375 53.0625 C-71.42666033 50.71210987 -72.40386681 48.35783139 -73.375 46 C-73.79168945 45.01483398 -73.79168945 45.01483398 -74.21679688 44.00976562 C-75.96848328 39.72552057 -77.30205696 35.74657174 -77.4375 31.0625 C-75.2542503 27.58885197 -71.74331312 25.43601395 -68.4375 23.0625 C-67.88884277 22.66627441 -67.34018555 22.27004883 -66.77490234 21.86181641 C-48.01642354 8.57867315 -23.14500257 -0.26005621 0 0 Z " fill="#493286" transform="translate(91.4375,171.9375)"/>
  <path d="M0 0 C0.33 0 0.66 0 1 0 C0.99476318 1.12494873 0.98952637 2.24989746 0.98413086 3.40893555 C0.96599566 7.59284669 0.95453686 11.77675437 0.94506836 15.96069336 C0.94004762 17.76961858 0.93322971 19.57853976 0.92456055 21.38745117 C0.91239598 23.99138386 0.90674902 26.59526277 0.90234375 29.19921875 C0.89718246 30.00461594 0.89202118 30.81001312 0.88670349 31.63981628 C0.88631363 35.56472601 1.02915245 39.16699982 2 43 C2.825 42.195625 3.65 41.39125 4.5 40.5625 C28.55957192 20.07088063 62.29913721 12.37345178 93 13 C93.08786771 17.88293431 92.79535278 22.53814689 92.125 27.375 C91.96257812 28.59960938 91.80015625 29.82421875 91.6328125 31.0859375 C91.42398438 32.04757813 91.21515625 33.00921875 91 34 C90.01 34.495 90.01 34.495 89 35 C89 34.34 89 33.68 89 33 C61.5947101 35.0984622 36.37227461 41.54962766 14 58 C12.97205322 58.70745361 12.97205322 58.70745361 11.92333984 59.42919922 C10.02211024 60.84795008 8.46246547 62.13182578 7 64 C6.72823812 69.71379355 9.36665368 75.18942743 11.5 80.4375 C11.85529785 81.31349854 12.2105957 82.18949707 12.57666016 83.09204102 C20.06113761 101.08451574 30.6620403 115.85223561 44 130 C44.66 130.72445312 45.32 131.44890625 46 132.1953125 C69.17983265 156.6921811 102.12596032 170.26813065 135 175 C135 175.33 135 175.66 135 176 C106.16325558 177.77760753 75.53800255 161.83927293 54.12890625 143.546875 C52.44021214 142.03131595 50.76445277 140.50114924 49.10546875 138.953125 C47.38742539 137.35939276 45.65134665 135.88541074 43.8125 134.4375 C40.1220411 131.23910229 37.07958364 127.78496313 34 124 C33.57444824 123.48630859 33.14889648 122.97261719 32.71044922 122.44335938 C19.44426992 106.27072701 10.16105993 87.70924686 3.62695312 67.89306641 C3.10580286 66.31946861 2.54946951 64.75757552 1.984375 63.19921875 C-2.49681572 50.12907914 -2.19722739 36.0202697 -2.25 22.375 C-2.25526703 21.66873474 -2.26053406 20.96246948 -2.26596069 20.23480225 C-2.27777275 18.1849786 -2.27430938 16.13576689 -2.265625 14.0859375 C-2.26336914 12.8901709 -2.26111328 11.6944043 -2.25878906 10.46240234 C-1.97534457 6.67012899 -1.16061249 3.60804111 0 0 Z " fill="#713A95" transform="translate(8,139)"/>
  <path d="M0 0 C0.99 0.33 1.98 0.66 3 1 C4.16983487 3.51027065 5.11739464 5.88817366 6 8.5 C6.39082764 9.6437207 6.39082764 9.6437207 6.78955078 10.81054688 C10.67473417 22.63860989 12.45446054 34.1966813 11.97802734 46.64453125 C11.91864002 48.42871443 11.95165621 50.21548344 12 52 C12.66 52.66 13.32 53.32 14 54 C-3.47845607 61.70641018 -22.76525849 67.26547322 -42 67 C-35.79020583 39.97525331 -23.74128013 18.81110836 -2.015625 1.1875 C-1.35046875 0.795625 -0.6853125 0.40375 0 0 Z " fill="#4E3487" transform="translate(213,250)"/>
  <path d="M0 0 C-0.60328125 0.17917969 -1.2065625 0.35835937 -1.828125 0.54296875 C-5.04918807 2.70386178 -5.62063343 5.77272493 -6.75 9.3125 C-14.92602677 32.79054525 -32.82457652 51.13228492 -54.99267578 61.97460938 C-66.57245852 67.23208026 -78.31496342 70.27585421 -91 71 C-94.85320287 64.84771941 -98.24087457 58.71928194 -101 52 C-99.32185058 50.32185058 -97.23188577 50.83401116 -94.98583984 50.76123047 C-74.53945965 50.04704971 -56.3272984 42.64568281 -42 28 C-35.01571805 20.07189617 -29.35468133 11.06404398 -26 1 C-19.11388264 -3.59074491 -7.91275194 -0.77332305 0 0 Z " fill="#613794" transform="translate(122,173)"/>
  <path d="M0 0 C3.28796113 -0.32226914 5.71190765 -0.38887151 8.8984375 0.50390625 C11.25804063 2.94972564 12.65654903 5.39440828 14.23046875 8.40234375 C16.4512336 12.53182219 19.35787939 15.86067324 22.39453125 19.41015625 C23.8984375 21.50390625 23.8984375 21.50390625 23.8984375 24.50390625 C16.03332068 36.16948003 5.02747896 46.4681607 -6.1640625 54.87890625 C-6.79521973 55.36166016 -7.42637695 55.84441406 -8.07666016 56.34179688 C-9.88671875 57.65234375 -9.88671875 57.65234375 -13.1015625 59.50390625 C-15.30249023 59.11962891 -15.30249023 59.11962891 -17.1015625 58.50390625 C-17.24404419 57.41057983 -17.24404419 57.41057983 -17.3894043 56.29516602 C-20.36080839 33.54745879 -20.36080839 33.54745879 -27.25 11.74609375 C-28.1015625 9.50390625 -28.1015625 9.50390625 -28.1015625 6.50390625 C-18.76223582 3.69529122 -9.61632153 1.56234947 0 0 Z " fill="#63388A" transform="translate(261.1015625,232.49609375)"/>
  <path d="M0 0 C12.84671196 5.36521613 23.40797559 22.71395285 30.8125 34 C31.47894531 35.010625 32.14539063 36.02125 32.83203125 37.0625 C34 40 34 40 33.4921875 42.97265625 C31.78150711 46.44327746 29.71637681 49.42818249 27.3125 52.4375 C26.63767578 53.29335693 26.63767578 53.29335693 25.94921875 54.16650391 C19.88211367 61.76555302 13.39730145 67.94933789 5 73 C4.34 73 3.68 73 3 73 C-4.84989253 51.16510475 -5.64746515 29.48936223 4.01171875 8.0625 C4.33785156 7.381875 4.66398437 6.70125 5 6 C3.35 4.02 1.7 2.04 0 0 Z " fill="#964495" transform="translate(263,44)"/>
  <path d="M0 0 C6.00607921 14.15367027 9.04007775 28.44828994 10.96142578 43.66430664 C11.24388126 45.78566933 11.61380944 47.89504926 12 50 C12.66 50.33 13.32 50.66 14 51 C11.10583514 54.15354756 8.2830527 56.13993663 4.5 58.125 C3.5615625 58.62257813 2.623125 59.12015625 1.65625 59.6328125 C0.7796875 60.08398438 -0.096875 60.53515625 -1 61 C-1.6909375 61.40992188 -2.381875 61.81984375 -3.09375 62.2421875 C-5.45524918 63.18098021 -6.64734457 62.84023408 -9 62 C-8.96519531 60.97003906 -8.93039063 59.94007813 -8.89453125 58.87890625 C-8.54301341 43.90921729 -10.50783427 30.44229439 -16.19384766 16.53125 C-18.11412349 11.64971292 -18.11412349 11.64971292 -17.60546875 8.75390625 C-15.18199747 6.10636706 -12.1995844 4.74699431 -9 3.25 C-8.35804688 2.93417969 -7.71609375 2.61835938 -7.0546875 2.29296875 C-2.30992965 0 -2.30992965 0 0 0 Z " fill="#7E3E97" transform="translate(233,240)"/>
  <path d="M0 0 C6.00040382 0.5605097 11.63551933 1.44143552 17.4375 3.0625 C18.5817041 3.38142212 18.5817041 3.38142212 19.74902344 3.70678711 C30.72747256 6.92286653 41.62697446 11.38287977 51 18 C49.39369175 22.24292532 47.4231838 26.27025107 45.375 30.3125 C45.05015625 30.95767578 44.7253125 31.60285156 44.390625 32.26757812 C43.59558044 33.84597541 42.79804366 35.42311694 42 37 C41.50371094 36.68546875 41.00742188 36.3709375 40.49609375 36.046875 C38.33740469 34.68694185 36.16956008 33.34251147 34 32 C32.906875 31.319375 31.81375 30.63875 30.6875 29.9375 C18.27272395 22.99080509 3.09757551 19.52504937 -11 19 C-11 18.67 -11 18.34 -11 18 C-8.36 18 -5.72 18 -3 18 C-2.86722656 17.03578125 -2.73445313 16.0715625 -2.59765625 15.078125 C-2.42105469 13.81484375 -2.24445313 12.5515625 -2.0625 11.25 C-1.80146484 9.37054688 -1.80146484 9.37054688 -1.53515625 7.453125 C-1.13825747 4.8921139 -0.65290585 2.49682675 0 0 Z " fill="#944098" transform="translate(121,154)"/>
  <path d="M0 0 C2 1 2 1 2.82202148 2.95507812 C3.21756226 4.2302832 3.21756226 4.2302832 3.62109375 5.53125 C3.91556396 6.47895264 4.21003418 7.42665527 4.51342773 8.40307617 C4.97084351 9.93605347 4.97084351 9.93605347 5.4375 11.5 C5.90555054 13.0610144 5.90555054 13.0610144 6.38305664 14.65356445 C10.09815874 27.35829634 12.69300901 39.67882683 12 53 C11.67 53 11.34 53 11 53 C10.67 49.7 10.34 46.4 10 43 C2.12717822 46.17176995 2.12717822 46.17176995 -5.5 49.875 C-8.41753164 51.18788924 -9.07380644 51.07055862 -12 50 C-17.79651326 45.87670706 -22.4784406 40.44000116 -27 35 C-25.49583188 31.10126539 -23.27848432 29.51495237 -19.875 27.1875 C-14.9587902 23.7153466 -10.35565532 20.15476555 -6 16 C-5.31292969 15.36191406 -4.62585938 14.72382812 -3.91796875 14.06640625 C-0.2287153 10.4722591 -0.2287153 10.4722591 1.2109375 5.71484375 C0.95974165 3.25993076 0.95974165 3.25993076 0 0 Z " fill="#8A4190" transform="translate(304,101)"/>
  <path d="M0 0 C4.61713934 0.9048665 8.79296077 3.05634659 13.04296875 5.00390625 C14.67114816 5.72638926 16.33403289 6.36952122 18 7 C18.66 6.67 19.32 6.34 20 6 C19.94683552 18.83922124 16.07398994 32.25873826 11 44 C10.51917969 43.71253906 10.03835938 43.42507812 9.54296875 43.12890625 C5.91902124 41.52011849 2.17524969 40.78479205 -1.6875 39.9375 C-9.87143987 38.12856013 -9.87143987 38.12856013 -11 37 C-12.27584906 22.3381936 -8.31833497 11.86998361 0 0 Z " fill="#7C3E8E" transform="translate(295,177)"/>
  <path d="M0 0 C4.99387784 3.08197974 9.04921432 6.66348503 13.1875 10.8125 C13.83734863 11.46395996 14.48719727 12.11541992 15.15673828 12.78662109 C19.57915933 17.31984709 23.61001913 22.03329345 27.375 27.125 C27.83285889 27.73964111 28.29071777 28.35428223 28.76245117 28.98754883 C31.10042154 32.26976047 32.58863285 34.96250758 33 39 C30.75820623 40.36965208 28.50827662 41.72052808 26.25 43.0625 C25.61578125 43.45244141 24.9815625 43.84238281 24.328125 44.24414062 C19.54372232 47.05996095 19.54372232 47.05996095 16.91455078 46.77001953 C13.7529364 45.49843935 12.4036638 42.5778355 10.625 39.8125 C5.39948011 32.06306209 -0.89112267 25.70975701 -7.64648438 19.29003906 C-8.78005581 18.20962935 -9.89269035 17.10730965 -11 16 C-9.92044741 14.26847042 -8.83617488 12.53988316 -7.75 10.8125 C-7.14671875 9.84957031 -6.5434375 8.88664063 -5.921875 7.89453125 C-4.08362455 5.12594673 -2.11574051 2.56042049 0 0 Z " fill="#944098" transform="translate(189,184)"/>
  <path d="M0 0 C6.74609618 0.66355044 13.34448534 1.71865793 20 3 C19.6311417 10.08207944 17.3177376 14.9039346 13.8125 21 C13.34263672 21.85078125 12.87277344 22.7015625 12.38867188 23.578125 C4.11631999 38.29456 4.11631999 38.29456 -1 40 C-1.4125 39.27554688 -1.825 38.55109375 -2.25 37.8046875 C-3.98512274 35.02384346 -5.88871054 32.62815758 -8 30.125 C-11.19624355 26.20020093 -13.34212391 22.76639376 -15 18 C-9.26861756 17.84509777 -4.10650794 18.34755115 1.5 19.5 C2.59054687 19.71462891 2.59054687 19.71462891 3.703125 19.93359375 C5.47009071 20.28233698 7.23525309 20.64019723 9 21 C8.60167969 20.3709375 8.20335937 19.741875 7.79296875 19.09375 C0 6.50364964 0 6.50364964 0 0 Z " fill="#A04A98" transform="translate(285,215)"/>
  <path d="M0 0 C0.33 0 0.66 0 1 0 C1.21914062 1.09054688 1.43828125 2.18109375 1.6640625 3.3046875 C10.26989283 44.80040287 32.19088021 81.39250621 68 105 C88.27988441 117.87846674 110.27151753 125.58453661 134 129 C134 129.33 134 129.66 134 130 C105.16325558 131.77760753 74.53800255 115.83927293 53.12890625 97.546875 C51.44021214 96.03131595 49.76445277 94.50114924 48.10546875 92.953125 C46.38742539 91.35939276 44.65134665 89.88541074 42.8125 88.4375 C39.1220411 85.23910229 36.07958364 81.78496313 33 78 C32.57444824 77.48630859 32.14889648 76.97261719 31.71044922 76.44335938 C18.02338036 59.75762583 8.55832497 40.49923133 2 20 C1.41992188 18.21916016 1.41992188 18.21916016 0.828125 16.40234375 C-0.04359102 12.82090672 -0.20083151 9.74032843 -0.125 6.0625 C-0.10695313 4.91910156 -0.08890625 3.77570313 -0.0703125 2.59765625 C-0.03550781 1.31181641 -0.03550781 1.31181641 0 0 Z " fill="#8A8990" transform="translate(9,185)"/>
  <path d="M0 0 C6.27 0 12.54 0 19 0 C21.8125 7.75 21.8125 7.75 22.67895508 10.17089844 C24.0616224 13.91650696 25.4667636 16.86578559 28 20 C28 20.66 28 21.32 28 22 C26.9378125 21.86722656 25.875625 21.73445313 24.78125 21.59765625 C24.09546875 21.51193359 23.4096875 21.42621094 22.703125 21.33789062 C19.13541667 20.89192708 15.56770833 20.44596354 12 20 C11.23558594 19.90444824 10.47117187 19.80889648 9.68359375 19.71044922 C6.84179688 19.35522461 6.84179688 19.35522461 4 19 C3.31270941 17.53030271 2.65138044 16.04846164 2 14.5625 C1.62875 13.73878906 1.2575 12.91507813 0.875 12.06640625 C0 9 0 9 0 0 Z " fill="#EE6AA8" transform="translate(266,214)"/>
  <path d="M0 0 C3.78273855 1.72545969 7.49727246 3.56888401 11.20703125 5.4453125 C11.94759766 5.81785156 12.68816406 6.19039062 13.45117188 6.57421875 C15.26654342 7.48776056 17.08066407 8.40378737 18.89453125 9.3203125 C18.89453125 9.9803125 18.89453125 10.6403125 18.89453125 11.3203125 C17.93353516 11.75730469 17.93353516 11.75730469 16.953125 12.203125 C11.73642385 14.67542152 7.57162288 17.09692124 3.5625 21.28125 C1.89453125 22.3203125 1.89453125 22.3203125 -0.41015625 22.23828125 C-3.83888928 21.07052435 -6.44269806 19.31761529 -9.41796875 17.2578125 C-10.48660156 16.52433594 -11.55523437 15.79085937 -12.65625 15.03515625 C-13.46449219 14.46925781 -14.27273438 13.90335938 -15.10546875 13.3203125 C-14.62947286 9.0752063 -12.29331356 7.34562973 -9.16796875 4.6328125 C-8.27207031 3.84519531 -7.37617188 3.05757812 -6.453125 2.24609375 C-2.66586421 -0.86059438 -2.66586421 -0.86059438 0 0 Z " fill="#F17EB1" transform="translate(295.10546875,153.6796875)"/>
  <path d="M0 0 C5.63098876 3.00064027 10.88084541 6.18786361 16 10 C15.39774072 14.3282367 13.8444251 17.52979838 11.6875 21.3125 C11.09324219 22.38113281 10.49898437 23.44976562 9.88671875 24.55078125 C9.26410156 25.35902344 8.64148438 26.16726562 8 27 C3.44089453 27 2.49494642 26.25418363 -1.0625 23.625 C-1.91972656 22.99851563 -2.77695313 22.37203125 -3.66015625 21.7265625 C-4.43230469 21.15679687 -5.20445312 20.58703125 -6 20 C-6.99 19.34 -7.98 18.68 -9 18 C-7.45614871 13.85967154 -5.48971062 10.06446947 -3.375 6.1875 C-3.05015625 5.59001953 -2.7253125 4.99253906 -2.390625 4.37695312 C-1.59620849 2.91662865 -0.79844624 1.45812509 0 0 Z " fill="#EC60A3" transform="translate(172,172)"/>
  <path d="M0 0 C1.82421875 2.80078125 1.82421875 2.80078125 3.6875 6.3125 C4.31011719 7.46363281 4.93273437 8.61476563 5.57421875 9.80078125 C7 13 7 13 7 17 C4.56781941 18.19963643 2.13029422 19.38484438 -0.3125 20.5625 C-1.34793945 21.07586914 -1.34793945 21.07586914 -2.40429688 21.59960938 C-7.66015625 24.11328125 -7.66015625 24.11328125 -11 23 C-12.52042738 20.5376635 -13.87578799 18.13136818 -15.1875 15.5625 C-15.55552734 14.86833984 -15.92355469 14.17417969 -16.30273438 13.45898438 C-19 8.28964228 -19 8.28964228 -19 6 C-18.18015625 5.66226563 -17.3603125 5.32453125 -16.515625 4.9765625 C-15.43796875 4.53054687 -14.3603125 4.08453125 -13.25 3.625 C-11.64898437 2.96371094 -11.64898437 2.96371094 -10.015625 2.2890625 C-7.09113874 1.10069712 -7.09113874 1.10069712 -4.796875 -0.2265625 C-3 -1 -3 -1 0 0 Z " fill="#F181B3" transform="translate(268,119)"/>
  <path d="M0 0 C10.125 0 10.125 0 14.5625 0.5 C15.40941406 0.5928125 16.25632812 0.685625 17.12890625 0.78125 C17.74636719 0.8534375 18.36382812 0.925625 19 1 C20.8799034 7.51118861 18.50221147 13.57053492 17 20 C10.4 20 3.8 20 -3 20 C-2.01 13.4 -1.02 6.8 0 0 Z " fill="#E258A0" transform="translate(101,152)"/>
  <path d="M0 0 C1.47459684 2.30166613 2.65549015 4.42399816 3.8125 6.875 C4.29879883 7.83212891 4.29879883 7.83212891 4.79492188 8.80859375 C7.13222631 13.60332106 7.13222631 13.60332106 6 17 C3.71797275 18.33653259 1.50795631 19.50248964 -0.875 20.625 C-1.51308594 20.93695313 -2.15117187 21.24890625 -2.80859375 21.5703125 C-5.50949 22.87847102 -8.15035854 24.05011951 -11 25 C-11.24234375 24.34773438 -11.4846875 23.69546875 -11.734375 23.0234375 C-13.7129301 17.86397458 -15.83922911 13.51538698 -19 9 C-19 8.34 -19 7.68 -19 7 C-16.59087645 5.63063499 -14.17425815 4.27958007 -11.75 2.9375 C-11.06808594 2.54755859 -10.38617188 2.15761719 -9.68359375 1.75585938 C-9.01972656 1.39169922 -8.35585937 1.02753906 -7.671875 0.65234375 C-7.0644043 0.31195068 -6.45693359 -0.02844238 -5.83105469 -0.37915039 C-3.46217093 -1.18235991 -2.29334372 -0.96224005 0 0 Z " fill="#E359A0" transform="translate(225,224)"/>
  <path d="M0 0 C4.45143264 0.64268404 8.58881647 1.70666643 12.875 3.0625 C14.02742188 3.42472656 15.17984375 3.78695312 16.3671875 4.16015625 C17.23601562 4.43730469 18.10484375 4.71445313 19 5 C18.48914188 11.43681228 17.27057103 16.95942424 15 23 C8.36906706 22.65226572 2.946072 22.03910346 -3 19 C-2.37679879 12.56025419 -1.35991738 6.32427599 0 0 Z " fill="#EF74AC" transform="translate(188,123)"/>
  <path d="M0 0 C6.74609618 0.66355044 13.34448534 1.71865793 20 3 C19.65357936 10.24103638 17.14142461 15.21189925 13.5625 21.4375 C12.80743164 22.80165039 12.80743164 22.80165039 12.03710938 24.19335938 C8.29120942 30.85439529 8.29120942 30.85439529 6 32 C6.33 30.35 6.66 28.7 7 27 C7.66 27 8.32 27 9 27 C8.68698184 21.15699436 7.55060377 17.82980032 4.27734375 13.01953125 C1.75902667 9.03797183 0 4.74763501 0 0 Z " fill="#A65495" transform="translate(285,215)"/>
  <path d="M0 0 C0.66 0 1.32 0 2 0 C2.27353748 25.92527422 2.27353748 25.92527422 -1 34 C-1.0825 33.3709375 -1.165 32.741875 -1.25 32.09375 C-1.78161017 29.86123881 -1.78161017 29.86123881 -3.75 29.09375 C-4.4925 28.8978125 -5.235 28.701875 -6 28.5 C-10.88660516 27.08029609 -15.39285262 25.14564547 -20 23 C-14.67216442 17.15656742 -8.21466678 11.42126496 0 11 C0 7.37 0 3.74 0 0 Z " fill="#BF5B97" transform="translate(315,154)"/>
  <path d="M0 0 C0 7.26 0 14.52 0 22 C-0.33 21.34 -0.66 20.68 -1 20 C-2.78042656 19.30562395 -2.78042656 19.30562395 -4.9375 18.75 C-10.49332128 17.02608761 -15.1364812 14.13742653 -20 11 C-19 8 -19 8 -16.48828125 6.46484375 C-15.44027344 5.96082031 -14.39226562 5.45679688 -13.3125 4.9375 C-12.27738281 4.43089844 -11.24226563 3.92429688 -10.17578125 3.40234375 C-2.47075209 0 -2.47075209 0 0 0 Z " fill="#DF5AA1" transform="translate(315,143)"/>
  <path d="M0 0 C4.84157308 1.45920673 9.10206048 3.48899284 13.5625 5.8125 C29.39226864 13.85082747 45.44794468 18.47356779 63 21 C63 21.33 63 21.66 63 22 C43.74557787 23.18691643 25.41637906 16.05832551 8.5625 7.3125 C7.82201416 6.93198486 7.08152832 6.55146973 6.31860352 6.15942383 C1.12325822 3.36977466 1.12325822 3.36977466 0 0 Z " fill="#99999F" transform="translate(80,293)"/>
  <path d="M0 0 C0.33 0 0.66 0 1 0 C1 14.85 1 29.7 1 45 C0.34 44.67 -0.32 44.34 -1 44 C-2.74661749 38.00307177 -2.18599272 31.53013886 -2.18530273 25.33544922 C-2.18748628 23.13879939 -2.20566078 20.94265473 -2.22460938 18.74609375 C-2.22754457 17.33333503 -2.22952852 15.92057395 -2.23046875 14.5078125 C-2.23457764 13.23566895 -2.23868652 11.96352539 -2.24291992 10.65283203 C-1.98383375 6.75690504 -1.20165151 3.69514536 0 0 Z " fill="#97949D" transform="translate(8,139)"/>
  <path d="M0 0 C3.59997144 0.58399537 5.27940043 1.92774711 7.875 4.4375 C12.41214745 8.64081051 17.27156751 12.13783254 22.39013672 15.58569336 C26.89501915 18.68505746 26.89501915 18.68505746 28 22 C23.00303512 20.39591594 19.24980632 17.44658181 15.125 14.3125 C14.44308594 13.80783203 13.76117188 13.30316406 13.05859375 12.78320312 C8.34079297 9.22912654 3.92342522 5.43173256 0 1 C0 0.67 0 0.34 0 0 Z " fill="#85858C" transform="translate(53,273)"/>
  <path d="M0 0 C-2.2073439 3.31101585 -2.55270909 3.45073237 -6.17578125 4.3515625 C-7.00400391 4.56296875 -7.83222656 4.774375 -8.68554688 4.9921875 C-9.98588867 5.30542969 -9.98588867 5.30542969 -11.3125 5.625 C-12.16779297 5.8415625 -13.02308594 6.058125 -13.90429688 6.28125 C-17.9179606 7.28855213 -21.92999787 8.24474187 -26 9 C-25.67 8.01 -25.34 7.02 -25 6 C-23.12988281 5.10864258 -23.12988281 5.10864258 -20.703125 4.39453125 C-19.8265625 4.13349609 -18.95 3.87246094 -18.046875 3.60351562 C-17.12390625 3.34248047 -16.2009375 3.08144531 -15.25 2.8125 C-14.3425 2.53986328 -13.435 2.26722656 -12.5 1.98632812 C-8.18287815 0.72716759 -4.52742281 -0.15537246 0 0 Z " fill="#867881" transform="translate(131,9)"/>
  <path d="M0 0 C7.92324543 0.26410818 14.33661351 2.65149129 21 7 C21.33 7.99 21.66 8.98 22 10 C17.04242102 8.45173401 12.36189599 6.48219062 7.625 4.375 C6.88894531 4.05015625 6.15289062 3.7253125 5.39453125 3.390625 C3.59529031 2.59615497 1.79749504 1.79841229 0 1 C0 0.67 0 0.34 0 0 Z " fill="#AAA2AA" transform="translate(213,16)"/>
  <path d="M0 0 C1.18857105 3.56571316 0.717232 4.94781941 -0.21484375 8.54296875 C-0.48876953 9.61611328 -0.76269531 10.68925781 -1.04492188 11.79492188 C-1.33947266 12.91447266 -1.63402344 14.03402344 -1.9375 15.1875 C-2.22818359 16.31865234 -2.51886719 17.44980469 -2.81835938 18.61523438 C-3.53823848 21.4121417 -4.26572486 24.20684393 -5 27 C-5.33 27 -5.66 27 -6 27 C-5.27044025 7.90566038 -5.27044025 7.90566038 0 0 Z " fill="#A09BA5" transform="translate(15,110)"/>
  <path d="M0 0 C-0.33 0.66 -0.66 1.32 -1 2 C-3.48627537 2.81978273 -5.90006685 3.508374 -8.4375 4.125 C-9.5193457 4.39328613 -9.5193457 4.39328613 -10.62304688 4.66699219 C-16.13382299 5.95973457 -21.33611775 6.49014366 -27 6 C-27 5.67 -27 5.34 -27 5 C-26.37955811 4.85377197 -25.75911621 4.70754395 -25.11987305 4.55688477 C-22.30874516 3.89350805 -19.49811926 3.22802824 -16.6875 2.5625 C-15.22280273 2.21735352 -15.22280273 2.21735352 -13.72851562 1.86523438 C-12.79072266 1.64287109 -11.85292969 1.42050781 -10.88671875 1.19140625 C-10.02264404 0.98717041 -9.15856934 0.78293457 -8.26831055 0.57250977 C-2.58544653 -0.86181551 -2.58544653 -0.86181551 0 0 Z " fill="#9F9CA8" transform="translate(213,308)"/>
  <path d="M0 0 C12 2 12 2 24 4 C24 4.33 24 4.66 24 5 C16.37635466 5.21209523 9.32648504 5.28201993 2 3 C1.34 2.01 0.68 1.02 0 0 Z " fill="#9B9BA3" transform="translate(119,310)"/>
  <path d="M0 0 C4.62675657 1.3922459 8.64686231 3.29520984 12.875 5.625 C14.02742188 6.25664062 15.17984375 6.88828125 16.3671875 7.5390625 C17.67042969 8.26222656 17.67042969 8.26222656 19 9 C19 9.33 19 9.66 19 10 C12.18736404 9.69721618 6.56803967 6.87258122 1 3 C0.67 2.01 0.34 1.02 0 0 Z " fill="#98989D" transform="translate(80,293)"/>
  <path d="M0 0 C1.34661893 4.03985678 -0.00812069 6.7199696 -1.375 10.5625 C-1.60960937 11.24763672 -1.84421875 11.93277344 -2.0859375 12.63867188 C-2.9547634 15.15382413 -3.80859943 17.61719886 -5 20 C-5.66 20 -6.32 20 -7 20 C-7.33 20.66 -7.66 21.32 -8 22 C-7.40644629 16.69981613 -5.62627368 12.41863107 -3.4375 7.625 C-3.10814453 6.88894531 -2.77878906 6.15289062 -2.43945312 5.39453125 C-1.63252195 3.59355443 -0.8171174 1.79637819 0 0 Z " fill="#7C797F" transform="translate(22,90)"/>
  <path d="M0 0 C0.33 0 0.66 0 1 0 C1.6986179 2.91440599 2.3842031 5.83086087 3.0625 8.75 C3.26166016 9.575 3.46082031 10.4 3.66601562 11.25 C3.84970703 12.04921875 4.03339844 12.8484375 4.22265625 13.671875 C4.39547119 14.4050293 4.56828613 15.13818359 4.74633789 15.89355469 C5.02424428 18.20132783 4.69809241 19.79916037 4 22 C4 21.34 4 20.68 4 20 C3.34 20 2.68 20 2 20 C-0.46254726 13.38190423 -0.18935472 6.99560484 0 0 Z " fill="#A3A1A8" transform="translate(9,185)"/>
  <path d="M0 0 C0.33 0.66 0.66 1.32 1 2 C1.66 2 2.32 2 3 2 C7.59225513 13.52164009 7.59225513 13.52164009 7 19 C4.39350532 16.39350532 3.55975019 13.46865679 2.375 10.0625 C2.03082031 9.11213867 2.03082031 9.11213867 1.6796875 8.14257812 C0.67198284 5.29041404 0 3.04816693 0 0 Z " fill="#818185" transform="translate(12,205)"/>
  <path d="M0 0 C3.67758005 3.28355362 5.81389118 6.62778237 8 11 C7.67 11.66 7.34 12.32 7 13 C4.04415849 10.24800963 1.81234853 7.62469707 0 4 C0 2.68 0 1.36 0 0 Z " fill="#746C74" transform="translate(289,73)"/>
  <path d="M0 0 C-3.40219265 2.74792483 -7.48464588 6 -12 6 C-12 5.01 -12 4.02 -12 3 C-7.77050005 0.58314288 -4.87664009 -0.34833144 0 0 Z " fill="#AEA8AF" transform="translate(104,18)"/>
  <path d="M0 0 C-2.41407698 1.60938465 -4.34044437 2.65490738 -7 3.6875 C-8.0209375 4.09548828 -8.0209375 4.09548828 -9.0625 4.51171875 C-11 5 -11 5 -14 4 C-9.97634192 -0.62720679 -5.89090326 -0.1132866 0 0 Z " fill="#ACA6AD" transform="translate(119,13)"/>
  <path d="M0 0 C-1.43032837 1.17544805 -2.86953242 2.34010262 -4.3125 3.5 C-5.11300781 4.1496875 -5.91351563 4.799375 -6.73828125 5.46875 C-9 7 -9 7 -12 7 C-11.09515208 5.84481082 -10.1755794 4.70114594 -9.25 3.5625 C-8.73953125 2.92441406 -8.2290625 2.28632812 -7.703125 1.62890625 C-5.18201853 -0.78233549 -3.18772335 -1.59386167 0 0 Z " fill="#A79EA9" transform="translate(76,34)"/>
  <path d="M0 0 C0.99 0.33 1.98 0.66 3 1 C2.09972412 2.03531726 1.17906965 3.05294165 0.25 4.0625 C-0.51570313 4.91521484 -0.51570313 4.91521484 -1.296875 5.78515625 C-3 7 -3 7 -5.203125 6.68359375 C-5.79609375 6.45800781 -6.3890625 6.23242188 -7 6 C-5.90716423 4.96704564 -4.80029421 3.94892165 -3.6875 2.9375 C-3.07261719 2.36902344 -2.45773437 1.80054688 -1.82421875 1.21484375 C-0.92123047 0.61349609 -0.92123047 0.61349609 0 0 Z " fill="#77757A" transform="translate(266,274)"/>
  <path d="M0 0 C-1 2 -1 2 -4.3125 3.1875 C-7.57562063 3.90649268 -8.99282882 4.20286847 -12 3 C-11.01 3 -10.02 3 -9 3 C-9 2.34 -9 1.68 -9 1 C-3.375 -1.125 -3.375 -1.125 0 0 Z " fill="#8E8D94" transform="translate(213,308)"/>
  <path d="M0 0 C0.66 0.33 1.32 0.66 2 1 C-0.25740623 3.33524782 -2.2805761 5.18705073 -5 7 C-6.32 6.67 -7.64 6.34 -9 6 C-6.03 4.02 -3.06 2.04 0 0 Z " fill="#9C98A0" transform="translate(245,290)"/>
  <path d="M0 0 C8.26086957 -0.15886288 8.26086957 -0.15886288 11 1 C11.33 1.99 11.66 2.98 12 4 C6.06 2.515 6.06 2.515 0 1 C0 0.67 0 0.34 0 0 Z " fill="#838386" transform="translate(108,308)"/>
  <path d="M0 0 C0.66 0 1.32 0 2 0 C1.52797514 4.24822374 -0.96655518 6.19989709 -4 9 C-4.66 8.67 -5.32 8.34 -6 8 C-5.04956626 6.66102417 -4.08940853 5.32894573 -3.125 4 C-2.59132812 3.2575 -2.05765625 2.515 -1.5078125 1.75 C-1.01023437 1.1725 -0.51265625 0.595 0 0 Z " fill="#C18EB8" transform="translate(47,56)"/>
  <path d="M0 0 C3.79588866 0.54226981 5.47211993 2.20127563 8 5 C7.67 5.99 7.34 6.98 7 8 C5.83035398 6.8572081 4.66435444 5.71068285 3.5 4.5625 C2.8503125 3.92441406 2.200625 3.28632813 1.53125 2.62890625 C0 1 0 1 0 0 Z " fill="#7E7E83" transform="translate(53,273)"/>
  <path d="M0 0 C5.66153846 1.47692308 5.66153846 1.47692308 7.375 4.125 C7.684375 5.053125 7.684375 5.053125 8 6 C2.33846154 4.52307692 2.33846154 4.52307692 0.625 1.875 C0.41875 1.25625 0.2125 0.6375 0 0 Z " fill="#9B949A" transform="translate(227,20)"/>
  <path d="M0 0 C-0.33 0.99 -0.66 1.98 -1 3 C-3.64 3.33 -6.28 3.66 -9 4 C-6.10130984 1.70103884 -3.84906588 0 0 0 Z " fill="#AFADB5" transform="translate(223,303)"/>
  <path d="M0 0 C0.33 0.99 0.66 1.98 1 3 C-0.4375 5.1875 -0.4375 5.1875 -2 7 C-2.99 6.67 -3.98 6.34 -5 6 C-3.35 4.02 -1.7 2.04 0 0 Z " fill="#7B777F" transform="translate(280,259)"/>
</svg>
